<?xml version="1.0" encoding="UTF-8" standalone="no"?>
<!-- Created with Inkscape (http://www.inkscape.org/) -->

<svg
   width="20"
   height="20"
   viewBox="0 0 20 20.000001"
   version="1.1"
   id="svg1"
   xml:space="preserve"
   inkscape:version="1.3 (0e150ed6c4, 2023-07-21)"
   sodipodi:docname="close.svg"
   xmlns:inkscape="http://www.inkscape.org/namespaces/inkscape"
   xmlns:sodipodi="http://sodipodi.sourceforge.net/DTD/sodipodi-0.dtd"
   xmlns="http://www.w3.org/2000/svg"
   xmlns:svg="http://www.w3.org/2000/svg"><sodipodi:namedview
     id="namedview1"
     pagecolor="#ffffff"
     bordercolor="#000000"
     borderopacity="0.25"
     inkscape:showpageshadow="2"
     inkscape:pageopacity="0.0"
     inkscape:pagecheckerboard="0"
     inkscape:deskcolor="#d1d1d1"
     inkscape:document-units="px"
     inkscape:zoom="36.243548"
     inkscape:cx="6.1390238"
     inkscape:cy="10.388056"
     inkscape:window-width="1920"
     inkscape:window-height="1137"
     inkscape:window-x="-8"
     inkscape:window-y="-8"
     inkscape:window-maximized="1"
     inkscape:current-layer="layer1" /><defs
     id="defs1" /><g
     inkscape:label="Слой 1"
     inkscape:groupmode="layer"
     id="layer1"><g
       id="path2" /><path
       id="path3"
       style="color:#000000;fill:#000000;stroke-width:0.0441714;stroke-linecap:round;-inkscape-stroke:none"
       d="M 17.949509,0.06213281 A 1.9587037,1.9587037 0 0 0 16.564497,0.63584297 L 0.61363183,16.586707 a 1.9587037,1.9587037 0 0 0 0,2.770027 1.9587037,1.9587037 0 0 0 2.77002737,0 L 19.334524,3.4058703 a 1.9587037,1.9587037 0 0 0 0,-2.77002733 1.9587037,1.9587037 0 0 0 -1.385015,-0.57371016 z m -15.9484476,0 A 1.9587037,1.9587037 0 0 0 0.61535816,0.63420304 1.9587037,1.9587037 0 0 0 0.6119889,3.4041439 L 16.601849,19.432998 a 1.9587037,1.9587037 0 0 0 2.770029,0.0034 1.9587037,1.9587037 0 0 0 0.0034,-2.770028 L 3.3853855,0.63756786 A 1.9587037,1.9587037 0 0 0 2.0010614,0.06213281 Z M 1.9986736,2.0208603 17.988505,18.049689" /></g></svg>
